<svg width="20" height="20" fill="none" xmlns="http://www.w3.org/2000/svg"><g clip-path="url(#clip0_17498_876)"><path d="M20 10c0-5.523-4.477-10-10-10S0 4.477 0 10s4.477 10 10 10 10-4.477 10-10z" fill="#F5BF39"/><path d="M12.704 14.494a.201.201 0 00-.252-.069c-.991.469-2.116.965-2.337 1.008a.196.196 0 01-.026-.03.264.264 0 01-.044-.161c0-.56.423-2.266 1.257-5.068.704-2.354.785-2.842.785-3.004 0-.25-.096-.46-.277-.61-.172-.142-.412-.214-.714-.214-.502 0-1.084.19-1.78.583-.673.38-1.424 1.024-2.232 1.914a.202.202 0 00.225.322c.284-.115 1.71-.7 1.917-.83.17-.106.317-.16.438-.16h.01c.002.008.004.02.004.037 0 .123-.026.269-.075.432-1.215 3.936-1.805 6.348-1.805 7.376 0 .363.1.655.3.868.202.217.475.328.811.328.359 0 .795-.15 1.334-.458.521-.298 1.317-.953 2.433-2.004a.201.201 0 00.028-.26zM12.67 3.09a1.016 1.016 0 00-.756-.306c-.376 0-.704.15-.974.443a1.5 1.5 0 00-.4 1.052c0 .324.098.592.294.798a.99.99 0 00.745.314c.361 0 .687-.157.97-.467.276-.305.417-.663.417-1.064 0-.309-.1-.567-.297-.77z" fill="#fff"/></g><defs><clipPath id="clip0_17498_876"><path fill="#fff" d="M0 0h20v20H0z"/></clipPath></defs></svg>