<svg width="58" height="50" fill="none" xmlns="http://www.w3.org/2000/svg"><g id="one" stroke-width="2"><path stroke="#213564" d="M1 1h23v48H1z"/><path d="M1.25 1.429L23.125 48.57"/><path d="M23.125 1.429L1.25 48.57" stroke="#213564"/></g><path d="M1 1h23v48H1zm.25.429L23.125 48.57m0-47.141L1.25 48.57M24 1h23v18H24zm0 0l22 17m0-17L24 18" id="two" stroke="#CDD2E0" stroke-width="2"/><path d="M1 1h23v48H1zm.25.429L23.125 48.57m0-47.141L1.25 48.57M24 1h23v48H24zm.25.429L46.125 48.57m0-47.141L24.25 48.57" id="three" stroke="#CDD2E0" stroke-width="2"/><path d="M1 1h23v48H1zm.25.429L23.125 48.57m0-47.141L1.25 48.57M24 1h23v48H24zm.25.429L46.125 48.57m0-47.141L24.25 48.57M47 1h23v48H47zm.25.429L69.125 48.57m0-47.141L47.25 48.57" id="four" stroke="#CDD2E0" stroke-width="2"/><g id="five" stroke="#CDD2E0" stroke-width="2"><path d="M1 1h28v48H1z"/><path d="M1 19h28V1H1zm0 0l27 30M1.5 1l27 18.5m0-18.5l-27 18.5M28 19L1 49"/></g><g id="six" stroke="#CDD2E0" stroke-width="2"><path d="M1 1h28v48H1z"/><path d="M1 19h28V1H1zm0 0l27 30M1.5 1l27 18.5m0-18.5l-27 18.5M28 19L1 49M29 1h28v48H29z"/><path d="M29 19h28V1H29zm0 0l27 30M29.5 1l27 18.5m0-18.5l-27 18.5M56 19L29 49"/></g><g id="seven" stroke="#CDD2E0" stroke-width="2"><path d="M1 1h28v48H1z"/><path d="M1 19h28V1H1zm0 0l27 30M1.5 1l27 18.5m0-18.5l-27 18.5M28 19L1 49M57 1h28v48H57z"/><path d="M57 19h28V1H57zm0 0l27 30M57.5 1l27 18.5m0-18.5l-27 18.5M84 19L57 49M29 1h28v48H29z"/><path d="M29 19h28V1H29zm0 0l27 30M29.5 1l27 18.5m0-18.5l-27 18.5M56 19L29 49"/></g></svg>